<svg width="" height="" viewBox="0 0 1780 502" fill="none" xmlns="http://www.w3.org/2000/svg">
<g clip-path="url(#clip0_4_272)">
<rect x="2" y="2" width="1776" height="498" stroke="black" stroke-width="4"/>
<path d="M595 139L2.05228e-05 -3.29238e-05" stroke="black" stroke-width="4"/>
<path d="M1185 139L1780 0" stroke="black" stroke-width="4"/>
<rect x="597" y="139" width="586" height="224" stroke="black" stroke-width="4"/>
<path d="M1103.7 307.904C1102.09 315.557 1096.21 319.263 1089.52 319.263C1079.94 319.263 1072.69 311.368 1072.69 300.816C1072.69 290.666 1080.5 281.563 1089.93 281.563C1098.71 281.563 1103.94 288.33 1104.02 296.466H1077.44C1077.36 297.11 1077.36 297.835 1077.36 298.56C1077.36 307.663 1084.05 313.785 1091.54 313.785C1096.53 313.785 1100.64 312.174 1103.7 307.904ZM1088.8 285.188C1083.97 285.188 1079.62 288.33 1078 293.727H1097.74C1097.5 288.491 1093.95 285.188 1088.8 285.188Z" fill="black"/>
<path d="M1048.14 289.699L1041.05 285.832L1054.1 280.757V288.088H1056.03C1059.98 284.06 1062.8 281.563 1066.02 281.563C1068.52 281.563 1070.37 283.174 1070.37 285.591C1070.37 287.605 1068.84 289.377 1066.9 290.263L1060.94 286.477L1054.1 291.874V315.557H1062.72V318.457H1042.25V315.557H1048.14V289.699Z" fill="black"/>
<path d="M1026.65 319.746V314.671H1024.63C1021.65 317.168 1018.03 319.263 1014 319.263C1007.32 319.263 1003.69 314.51 1003.69 307.743V285.752H997.005V283.093L1009.65 281.805V306.052C1009.65 312.093 1013.12 315.154 1018.03 315.154C1021.9 315.154 1025.2 313.221 1026.65 311.127V285.752H1019.88V283.093L1032.61 281.805V312.254L1039.7 315.476L1026.65 319.746Z" fill="black"/>
<path d="M968.939 285.752L980.942 275.199V283.335H995.039L992.703 286.88H980.942V306.938C980.942 312.335 984.003 314.59 987.87 314.59C991.011 314.59 993.67 313.463 996.247 310.885C994.234 316.443 989.964 319.263 984.728 319.263C979.653 319.263 975.223 316.04 975.223 309.677L975.625 287.685L968.939 285.752Z" fill="black"/>
<path d="M961.628 291.874L956.795 284.141C949.706 284.221 942.698 290.505 942.698 299.688C942.698 308.549 948.659 314.027 955.989 314.027C960.662 314.027 964.689 311.852 967.187 308.146C965.978 314.832 960.42 319.263 953.492 319.263C944.551 319.263 937.22 312.013 937.22 301.863C937.22 290.182 946.806 281.563 957.117 281.563C962.998 281.563 966.22 284.06 966.22 287.443C966.22 289.86 964.045 291.713 961.628 291.874Z" fill="black"/>
<path d="M932.538 307.904C930.927 315.557 925.046 319.263 918.36 319.263C908.774 319.263 901.524 311.368 901.524 300.816C901.524 290.666 909.338 281.563 918.763 281.563C927.544 281.563 932.78 288.33 932.86 296.466H906.277C906.197 297.11 906.197 297.835 906.197 298.56C906.197 307.663 912.883 313.785 920.374 313.785C925.369 313.785 929.477 312.174 932.538 307.904ZM917.635 285.188C912.802 285.188 908.452 288.33 906.841 293.727H926.577C926.335 288.491 922.791 285.188 917.635 285.188Z" fill="black"/>
<path d="M871.921 285.752L883.924 275.199V283.335H898.021L895.685 286.88H883.924V306.938C883.924 312.335 886.985 314.59 890.851 314.59C893.993 314.59 896.651 313.463 899.229 310.885C897.215 316.443 892.946 319.263 887.71 319.263C882.635 319.263 878.204 316.04 878.204 309.677L878.607 287.685L871.921 285.752Z" fill="black"/>
<path d="M859.971 271.01C857.474 271.01 855.541 269.077 855.541 266.66C855.541 264.244 857.474 262.23 859.971 262.23C862.468 262.23 864.402 264.244 864.402 266.66C864.402 269.077 862.468 271.01 859.971 271.01ZM857.796 315.557V289.699L850.707 285.832L863.757 280.757V315.557H869.718V318.457H851.916V315.557H857.796Z" fill="black"/>
<path d="M813.204 264.083L805.551 260.699L819.165 255.624V287.605H821.178C824.078 284.866 827.864 281.563 833.181 281.563C839.706 281.563 842.687 286.316 842.687 293.163V315.557H848.648V318.457H830.845V315.557H836.726V294.774C836.726 289.216 833.826 286.396 828.912 286.396C825.045 286.396 821.42 288.974 819.165 291.23V315.557H825.126V318.457H807.242V315.557H813.204V264.083Z" fill="black"/>
<path d="M798.804 291.874L793.97 284.141C786.882 284.221 779.873 290.505 779.873 299.688C779.873 308.549 785.834 314.027 793.165 314.027C797.837 314.027 801.865 311.852 804.362 308.146C803.154 314.832 797.595 319.263 790.668 319.263C781.726 319.263 774.396 312.013 774.396 301.863C774.396 290.182 783.982 281.563 794.293 281.563C800.173 281.563 803.395 284.06 803.395 287.443C803.395 289.86 801.22 291.713 798.804 291.874Z" fill="black"/>
<path d="M749.843 289.699L742.754 285.832L755.804 280.757V288.088H757.738C761.685 284.06 764.504 281.563 767.726 281.563C770.224 281.563 772.076 283.174 772.076 285.591C772.076 287.605 770.546 289.377 768.613 290.263L762.652 286.477L755.804 291.874V315.557H764.424V318.457H743.963V315.557H749.843V289.699Z" fill="black"/>
<path d="M705.969 262.874H712.655L734.083 315.315H740.93V318.457H717.086V315.315H727.155L719.825 297.11H700.169L692.839 315.315H702.747V318.457H682.286V315.315H689.053L708.305 268.674L705.969 262.874ZM701.458 293.968H718.536L709.997 272.863L701.458 293.968Z" fill="black"/>
<path d="M1101.81 209.079L1094.72 205.212L1107.77 200.137V206.984H1109.78C1112.76 204.246 1116.55 200.943 1121.86 200.943C1128.39 200.943 1131.37 205.696 1131.37 212.543V234.937H1137.25V237.837H1119.45V234.937H1125.41V214.154C1125.41 208.596 1122.51 205.776 1117.51 205.776C1113.65 205.776 1110.1 208.354 1107.77 210.609V234.937H1113.73V237.837H1095.93V234.937H1101.81V209.079Z" fill="black"/>
<path d="M1080.6 211.818C1080.6 207.146 1077.62 202.957 1069.08 206.098V213.107H1060.86C1063.84 206.582 1071.58 200.943 1078.5 200.943C1082.77 200.943 1086.24 203.843 1086.24 209.482V228.895C1086.24 232.279 1087.69 233.809 1090.1 233.809C1091.72 233.809 1093.33 233.084 1094.37 231.634C1094.21 235.743 1090.91 238.481 1087.12 238.481C1083.66 238.481 1081.49 236.306 1080.76 233.487H1078.99C1076.89 235.501 1073.51 238.401 1069.08 238.401C1065.13 238.401 1061.35 235.662 1061.35 230.99C1061.35 225.754 1066.26 222.773 1071.34 220.84L1080.6 217.296V211.818ZM1080.6 219.712L1075.36 221.726C1070.13 223.74 1067.31 225.593 1067.31 229.54C1067.31 232.52 1069.64 234.131 1072.62 234.131C1075.93 234.131 1078.42 232.52 1080.6 230.426V219.712Z" fill="black"/>
<path d="M999.027 209.079L991.938 205.212L1004.99 200.137V206.984H1007C1009.98 204.165 1013.53 200.943 1018.92 200.943C1023.68 200.943 1026.5 203.601 1027.87 207.307H1029.72C1032.62 204.487 1036.81 200.943 1042.12 200.943C1048.65 200.943 1051.55 205.696 1051.55 212.543V234.937H1057.43V237.837H1039.63V234.937H1045.59V214.154C1045.59 208.596 1042.69 205.776 1037.77 205.776C1033.91 205.776 1030.52 208.434 1028.27 210.69V234.937H1034.23V237.837H1016.35V234.937H1022.31V214.154C1022.31 208.596 1019.49 205.776 1014.49 205.776C1010.63 205.776 1007.32 208.434 1004.99 210.69V234.937H1010.95V237.837H993.146V234.937H999.027V209.079Z" fill="black"/>
<path d="M968.523 209.079L961.434 205.212L974.484 200.137V207.468H976.417C980.365 203.44 983.184 200.943 986.406 200.943C988.903 200.943 990.756 202.554 990.756 204.971C990.756 206.984 989.226 208.757 987.292 209.643L981.331 205.857L974.484 211.254V234.937H983.103V237.837H962.643V234.937H968.523V209.079Z" fill="black"/>
<path d="M920.976 219.793C920.976 208.676 929.917 200.943 939.584 200.943C949.331 200.943 958.272 208.676 958.272 219.793C958.272 230.909 949.331 238.643 939.584 238.643C929.917 238.643 920.976 230.909 920.976 219.793ZM927.5 219.793C927.5 228.976 933.139 235.823 939.584 235.823C946.109 235.823 951.747 228.976 951.747 219.793C951.747 210.529 946.109 203.762 939.584 203.762C933.139 203.762 927.5 210.69 927.5 219.793Z" fill="black"/>
<path d="M879.838 237.837H859.297V234.695H867.755V191.115L860.102 182.254H868.319L906.663 227.123V185.396H898.285V182.254H918.827V185.396H910.369V240.254L871.461 195.385V234.695H879.838V237.837Z" fill="black"/>
<path d="M815.547 234.534V225.19C818.447 232.601 823.281 235.42 827.55 235.42C831.256 235.42 834.317 233.084 834.317 229.137C834.317 220.115 816.353 222.773 816.353 211.093C816.353 204.809 821.589 200.943 827.147 200.943C830.047 200.943 832.786 202.312 834.397 203.843L838.425 200.862V213.59C835.042 207.871 831.497 204.004 827.147 204.004C823.925 204.004 821.428 206.018 821.428 209.401C821.428 217.779 839.714 215.684 839.714 227.365C839.714 233.809 833.753 238.643 826.583 238.643C821.992 238.643 817.642 236.79 815.547 234.534Z" fill="black"/>
<path d="M810.543 227.284C808.932 234.937 803.051 238.643 796.365 238.643C786.779 238.643 779.529 230.748 779.529 220.195C779.529 210.046 787.343 200.943 796.768 200.943C805.549 200.943 810.785 207.709 810.865 215.846H784.282C784.202 216.49 784.202 217.215 784.202 217.94C784.202 227.043 790.888 233.165 798.379 233.165C803.374 233.165 807.482 231.554 810.543 227.284ZM795.64 204.568C790.807 204.568 786.457 207.709 784.846 213.107H804.582C804.34 207.871 800.796 204.568 795.64 204.568Z" fill="black"/>
<path d="M717.532 209.079L710.443 205.212L723.493 200.137V206.984H725.507C728.487 204.165 732.032 200.943 737.429 200.943C742.182 200.943 745.001 203.601 746.37 207.307H748.223C751.123 204.487 755.312 200.943 760.629 200.943C767.154 200.943 770.053 205.696 770.053 212.543V234.937H775.934V237.837H758.131V234.937H764.092V214.154C764.092 208.596 761.192 205.776 756.279 205.776C752.412 205.776 749.029 208.434 746.773 210.69V234.937H752.734V237.837H734.851V234.937H740.812V214.154C740.812 208.596 737.993 205.776 732.998 205.776C729.132 205.776 725.829 208.434 723.493 210.69V234.937H729.454V237.837H711.651V234.937H717.532V209.079Z" fill="black"/>
<path d="M696.324 211.818C696.324 207.146 693.344 202.957 684.805 206.098V213.107H676.588C679.569 206.582 687.302 200.943 694.23 200.943C698.499 200.943 701.963 203.843 701.963 209.482V228.895C701.963 232.279 703.413 233.809 705.83 233.809C707.441 233.809 709.052 233.084 710.099 231.634C709.938 235.743 706.635 238.481 702.849 238.481C699.385 238.481 697.21 236.306 696.485 233.487H694.713C692.619 235.501 689.236 238.401 684.805 238.401C680.858 238.401 677.072 235.662 677.072 230.99C677.072 225.754 681.986 222.773 687.061 220.84L696.324 217.296V211.818ZM696.324 219.712L691.088 221.726C685.852 223.74 683.033 225.593 683.033 229.54C683.033 232.52 685.369 234.131 688.349 234.131C691.652 234.131 694.149 232.52 696.324 230.426V219.712Z" fill="black"/>
<path d="M659.343 232.843V185.396H650.885V182.254H674.246V185.396H665.868V235.501C662.968 244.04 653.946 255.72 647.26 255.72C644.521 255.72 642.749 253.787 642.749 251.451C642.749 249.92 643.474 248.148 644.924 247.181L653.382 250.323C656.363 247.262 659.343 241.704 659.343 232.843Z" fill="black"/>
<path d="M597 363L0 502" stroke="black" stroke-width="4"/>
<path d="M1183 363L1780 502" stroke="black" stroke-width="4"/>
</g>
<defs>
<clipPath id="clip0_4_272">
<rect width="1780" height="502" fill="white"/>
</clipPath>
</defs>
</svg>
