<svg width="" height="" viewBox="0 0 1780 590" fill="none" xmlns="http://www.w3.org/2000/svg">
<g clip-path="url(#clip0_4_503)">
<rect x="2" y="2" width="1776" height="586" stroke="black" stroke-width="4"/>
<path d="M595 183L2.75476e-05 -2.88408e-05" stroke="black" stroke-width="4"/>
<path d="M1185 183L1780 0" stroke="black" stroke-width="4"/>
<rect x="597" y="183" width="586" height="224" stroke="black" stroke-width="4"/>
<path d="M1103.7 351.904C1102.09 359.557 1096.21 363.263 1089.52 363.263C1079.94 363.263 1072.69 355.368 1072.69 344.816C1072.69 334.666 1080.5 325.563 1089.93 325.563C1098.71 325.563 1103.94 332.33 1104.02 340.466H1077.44C1077.36 341.11 1077.36 341.835 1077.36 342.56C1077.36 351.663 1084.05 357.785 1091.54 357.785C1096.53 357.785 1100.64 356.174 1103.7 351.904ZM1088.8 329.188C1083.97 329.188 1079.62 332.33 1078 337.727H1097.74C1097.5 332.491 1093.95 329.188 1088.8 329.188Z" fill="black"/>
<path d="M1048.14 333.699L1041.05 329.832L1054.1 324.757V332.088H1056.03C1059.98 328.06 1062.8 325.563 1066.02 325.563C1068.52 325.563 1070.37 327.174 1070.37 329.591C1070.37 331.604 1068.84 333.377 1066.9 334.263L1060.94 330.477L1054.1 335.874V359.557H1062.72V362.457H1042.25V359.557H1048.14V333.699Z" fill="black"/>
<path d="M1026.65 363.746V358.671H1024.63C1021.65 361.168 1018.03 363.263 1014 363.263C1007.32 363.263 1003.69 358.51 1003.69 351.743V329.752H997.005V327.094L1009.65 325.805V350.052C1009.65 356.093 1013.12 359.154 1018.03 359.154C1021.9 359.154 1025.2 357.221 1026.65 355.127V329.752H1019.88V327.094L1032.61 325.805V356.254L1039.7 359.477L1026.65 363.746Z" fill="black"/>
<path d="M968.939 329.752L980.942 319.199V327.335H995.039L992.703 330.88H980.942V350.938C980.942 356.335 984.003 358.591 987.87 358.591C991.011 358.591 993.67 357.463 996.247 354.885C994.234 360.443 989.964 363.263 984.728 363.263C979.653 363.263 975.223 360.041 975.223 353.677L975.625 331.685L968.939 329.752Z" fill="black"/>
<path d="M961.628 335.874L956.795 328.141C949.706 328.221 942.698 334.505 942.698 343.688C942.698 352.549 948.659 358.027 955.989 358.027C960.662 358.027 964.689 355.852 967.187 352.146C965.978 358.832 960.42 363.263 953.492 363.263C944.551 363.263 937.22 356.013 937.22 345.863C937.22 334.182 946.806 325.563 957.117 325.563C962.998 325.563 966.22 328.06 966.22 331.443C966.22 333.86 964.045 335.713 961.628 335.874Z" fill="black"/>
<path d="M932.538 351.904C930.927 359.557 925.046 363.263 918.36 363.263C908.774 363.263 901.524 355.368 901.524 344.816C901.524 334.666 909.338 325.563 918.763 325.563C927.544 325.563 932.78 332.33 932.86 340.466H906.277C906.197 341.11 906.197 341.835 906.197 342.56C906.197 351.663 912.883 357.785 920.374 357.785C925.369 357.785 929.477 356.174 932.538 351.904ZM917.635 329.188C912.802 329.188 908.452 332.33 906.841 337.727H926.577C926.335 332.491 922.791 329.188 917.635 329.188Z" fill="black"/>
<path d="M871.921 329.752L883.924 319.199V327.335H898.021L895.685 330.88H883.924V350.938C883.924 356.335 886.985 358.591 890.851 358.591C893.993 358.591 896.651 357.463 899.229 354.885C897.215 360.443 892.946 363.263 887.71 363.263C882.635 363.263 878.204 360.041 878.204 353.677L878.607 331.685L871.921 329.752Z" fill="black"/>
<path d="M859.971 315.01C857.474 315.01 855.541 313.077 855.541 310.66C855.541 308.244 857.474 306.23 859.971 306.23C862.468 306.23 864.402 308.244 864.402 310.66C864.402 313.077 862.468 315.01 859.971 315.01ZM857.796 359.557V333.699L850.707 329.832L863.757 324.757V359.557H869.718V362.457H851.916V359.557H857.796Z" fill="black"/>
<path d="M813.204 308.083L805.551 304.699L819.165 299.624V331.605H821.178C824.078 328.866 827.864 325.563 833.181 325.563C839.706 325.563 842.687 330.316 842.687 337.163V359.557H848.648V362.457H830.845V359.557H836.726V338.774C836.726 333.216 833.826 330.396 828.912 330.396C825.045 330.396 821.42 332.974 819.165 335.23V359.557H825.126V362.457H807.242V359.557H813.204V308.083Z" fill="black"/>
<path d="M798.804 335.874L793.97 328.141C786.882 328.221 779.873 334.505 779.873 343.688C779.873 352.549 785.834 358.027 793.165 358.027C797.837 358.027 801.865 355.852 804.362 352.146C803.154 358.832 797.595 363.263 790.668 363.263C781.726 363.263 774.396 356.013 774.396 345.863C774.396 334.182 783.982 325.563 794.293 325.563C800.173 325.563 803.395 328.06 803.395 331.443C803.395 333.86 801.22 335.713 798.804 335.874Z" fill="black"/>
<path d="M749.843 333.699L742.754 329.832L755.804 324.757V332.088H757.738C761.685 328.06 764.504 325.563 767.726 325.563C770.224 325.563 772.076 327.174 772.076 329.591C772.076 331.604 770.546 333.377 768.613 334.263L762.652 330.477L755.804 335.874V359.557H764.424V362.457H743.963V359.557H749.843V333.699Z" fill="black"/>
<path d="M705.969 306.874H712.655L734.083 359.315H740.93V362.457H717.086V359.315H727.155L719.825 341.11H700.169L692.839 359.315H702.747V362.457H682.286V359.315H689.053L708.305 312.674L705.969 306.874ZM701.458 337.968H718.536L709.997 316.863L701.458 337.968Z" fill="black"/>
<path d="M1101.81 253.079L1094.72 249.212L1107.77 244.137V250.984H1109.78C1112.76 248.246 1116.55 244.943 1121.86 244.943C1128.39 244.943 1131.37 249.696 1131.37 256.543V278.937H1137.25V281.837H1119.45V278.937H1125.41V258.154C1125.41 252.595 1122.51 249.776 1117.51 249.776C1113.65 249.776 1110.1 252.354 1107.77 254.609V278.937H1113.73V281.837H1095.93V278.937H1101.81V253.079Z" fill="black"/>
<path d="M1080.6 255.818C1080.6 251.146 1077.62 246.957 1069.08 250.098V257.107H1060.86C1063.84 250.582 1071.58 244.943 1078.5 244.943C1082.77 244.943 1086.24 247.843 1086.24 253.482V272.895C1086.24 276.279 1087.69 277.809 1090.1 277.809C1091.72 277.809 1093.33 277.084 1094.37 275.634C1094.21 279.743 1090.91 282.481 1087.12 282.481C1083.66 282.481 1081.49 280.306 1080.76 277.487H1078.99C1076.89 279.501 1073.51 282.401 1069.08 282.401C1065.13 282.401 1061.35 279.662 1061.35 274.99C1061.35 269.754 1066.26 266.773 1071.34 264.84L1080.6 261.296V255.818ZM1080.6 263.712L1075.36 265.726C1070.13 267.74 1067.31 269.593 1067.31 273.54C1067.31 276.52 1069.64 278.131 1072.62 278.131C1075.93 278.131 1078.42 276.52 1080.6 274.426V263.712Z" fill="black"/>
<path d="M999.027 253.079L991.938 249.212L1004.99 244.137V250.984H1007C1009.98 248.165 1013.53 244.943 1018.92 244.943C1023.68 244.943 1026.5 247.601 1027.87 251.307H1029.72C1032.62 248.487 1036.81 244.943 1042.12 244.943C1048.65 244.943 1051.55 249.696 1051.55 256.543V278.937H1057.43V281.837H1039.63V278.937H1045.59V258.154C1045.59 252.595 1042.69 249.776 1037.77 249.776C1033.91 249.776 1030.52 252.434 1028.27 254.69V278.937H1034.23V281.837H1016.35V278.937H1022.31V258.154C1022.31 252.595 1019.49 249.776 1014.49 249.776C1010.63 249.776 1007.32 252.434 1004.99 254.69V278.937H1010.95V281.837H993.146V278.937H999.027V253.079Z" fill="black"/>
<path d="M968.523 253.079L961.434 249.212L974.484 244.137V251.468H976.417C980.365 247.44 983.184 244.943 986.406 244.943C988.903 244.943 990.756 246.554 990.756 248.97C990.756 250.984 989.226 252.757 987.292 253.643L981.331 249.857L974.484 255.254V278.937H983.103V281.837H962.643V278.937H968.523V253.079Z" fill="black"/>
<path d="M920.976 263.793C920.976 252.676 929.917 244.943 939.584 244.943C949.331 244.943 958.272 252.676 958.272 263.793C958.272 274.909 949.331 282.643 939.584 282.643C929.917 282.643 920.976 274.909 920.976 263.793ZM927.5 263.793C927.5 272.976 933.139 279.823 939.584 279.823C946.109 279.823 951.747 272.976 951.747 263.793C951.747 254.529 946.109 247.762 939.584 247.762C933.139 247.762 927.5 254.69 927.5 263.793Z" fill="black"/>
<path d="M879.838 281.837H859.297V278.695H867.755V235.115L860.102 226.254H868.319L906.663 271.123V229.396H898.285V226.254H918.827V229.396H910.369V284.254L871.461 239.385V278.695H879.838V281.837Z" fill="black"/>
<path d="M815.547 278.534V269.19C818.447 276.601 823.281 279.42 827.55 279.42C831.256 279.42 834.317 277.084 834.317 273.137C834.317 264.115 816.353 266.773 816.353 255.093C816.353 248.809 821.589 244.943 827.147 244.943C830.047 244.943 832.786 246.312 834.397 247.843L838.425 244.862V257.59C835.042 251.871 831.497 248.004 827.147 248.004C823.925 248.004 821.428 250.018 821.428 253.401C821.428 261.779 839.714 259.684 839.714 271.365C839.714 277.809 833.753 282.643 826.583 282.643C821.992 282.643 817.642 280.79 815.547 278.534Z" fill="black"/>
<path d="M810.543 271.284C808.932 278.937 803.051 282.643 796.365 282.643C786.779 282.643 779.529 274.748 779.529 264.195C779.529 254.046 787.343 244.943 796.768 244.943C805.549 244.943 810.785 251.709 810.865 259.846H784.282C784.202 260.49 784.202 261.215 784.202 261.94C784.202 271.043 790.888 277.165 798.379 277.165C803.374 277.165 807.482 275.554 810.543 271.284ZM795.64 248.568C790.807 248.568 786.457 251.709 784.846 257.107H804.582C804.34 251.871 800.796 248.568 795.64 248.568Z" fill="black"/>
<path d="M717.532 253.079L710.443 249.212L723.493 244.137V250.984H725.507C728.487 248.165 732.032 244.943 737.429 244.943C742.182 244.943 745.001 247.601 746.37 251.307H748.223C751.123 248.487 755.312 244.943 760.629 244.943C767.154 244.943 770.053 249.696 770.053 256.543V278.937H775.934V281.837H758.131V278.937H764.092V258.154C764.092 252.595 761.192 249.776 756.279 249.776C752.412 249.776 749.029 252.434 746.773 254.69V278.937H752.734V281.837H734.851V278.937H740.812V258.154C740.812 252.595 737.993 249.776 732.998 249.776C729.132 249.776 725.829 252.434 723.493 254.69V278.937H729.454V281.837H711.651V278.937H717.532V253.079Z" fill="black"/>
<path d="M696.324 255.818C696.324 251.146 693.344 246.957 684.805 250.098V257.107H676.588C679.569 250.582 687.302 244.943 694.23 244.943C698.499 244.943 701.963 247.843 701.963 253.482V272.895C701.963 276.279 703.413 277.809 705.83 277.809C707.441 277.809 709.052 277.084 710.099 275.634C709.938 279.743 706.635 282.481 702.849 282.481C699.385 282.481 697.21 280.306 696.485 277.487H694.713C692.619 279.501 689.236 282.401 684.805 282.401C680.858 282.401 677.072 279.662 677.072 274.99C677.072 269.754 681.986 266.773 687.061 264.84L696.324 261.296V255.818ZM696.324 263.712L691.088 265.726C685.852 267.74 683.033 269.593 683.033 273.54C683.033 276.52 685.369 278.131 688.349 278.131C691.652 278.131 694.149 276.52 696.324 274.426V263.712Z" fill="black"/>
<path d="M659.343 276.843V229.396H650.885V226.254H674.246V229.396H665.868V279.501C662.968 288.04 653.946 299.72 647.26 299.72C644.521 299.72 642.749 297.787 642.749 295.451C642.749 293.92 643.474 292.148 644.924 291.181L653.382 294.323C656.363 291.262 659.343 285.704 659.343 276.843Z" fill="black"/>
<path d="M597 407L0 590" stroke="black" stroke-width="4"/>
<path d="M1183 407L1780 590" stroke="black" stroke-width="4"/>
</g>
<defs>
<clipPath id="clip0_4_503">
<rect width="1780" height="590" fill="white"/>
</clipPath>
</defs>
</svg>
