<svg width="" height="" viewBox="0 0 880 1179" fill="none" xmlns="http://www.w3.org/2000/svg">
<g clip-path="url(#clip0_4_457)">
<rect x="2" y="2" width="876" height="1175" stroke="black" stroke-width="4"/>
<path d="M145 477.5L7.7784e-05 -2.70877e-05" stroke="black" stroke-width="4"/>
<path d="M735 477.5L880 0" stroke="black" stroke-width="4"/>
<rect x="147" y="477.5" width="586" height="224" stroke="black" stroke-width="4"/>
<path d="M653.701 646.404C652.09 654.057 646.21 657.763 639.524 657.763C629.938 657.763 622.688 649.868 622.688 639.316C622.688 629.166 630.502 620.063 639.926 620.063C648.707 620.063 653.943 626.83 654.024 634.966H627.44C627.36 635.61 627.36 636.335 627.36 637.06C627.36 646.163 634.046 652.285 641.538 652.285C646.532 652.285 650.64 650.674 653.701 646.404ZM638.799 623.688C633.965 623.688 629.615 626.83 628.004 632.227H647.74C647.499 626.991 643.954 623.688 638.799 623.688Z" fill="black"/>
<path d="M598.135 628.199L591.047 624.332L604.097 619.257V626.588H606.03C609.977 622.56 612.796 620.063 616.019 620.063C618.516 620.063 620.369 621.674 620.369 624.091C620.369 626.104 618.838 627.877 616.905 628.763L610.944 624.977L604.097 630.374V654.057H612.716V656.957H592.255V654.057H598.135V628.199Z" fill="black"/>
<path d="M576.649 658.246V653.171H574.635C571.654 655.668 568.029 657.763 564.002 657.763C557.315 657.763 553.69 653.01 553.69 646.243V624.252H547.004V621.594L559.651 620.305V644.552C559.651 650.593 563.115 653.654 568.029 653.654C571.896 653.654 575.199 651.721 576.649 649.627V624.252H569.882V621.594L582.61 620.305V650.754L589.698 653.977L576.649 658.246Z" fill="black"/>
<path d="M518.939 624.252L530.942 613.699V621.835H545.039L542.703 625.38H530.942V645.438C530.942 650.835 534.003 653.091 537.87 653.091C541.011 653.091 543.67 651.963 546.247 649.385C544.233 654.943 539.964 657.763 534.728 657.763C529.653 657.763 525.222 654.541 525.222 648.177L525.625 626.185L518.939 624.252Z" fill="black"/>
<path d="M511.628 630.374L506.795 622.641C499.706 622.721 492.698 629.005 492.698 638.188C492.698 647.049 498.659 652.527 505.989 652.527C510.662 652.527 514.689 650.352 517.187 646.646C515.978 653.332 510.42 657.763 503.492 657.763C494.551 657.763 487.22 650.513 487.22 640.363C487.22 628.682 496.806 620.063 507.117 620.063C512.998 620.063 516.22 622.56 516.22 625.943C516.22 628.36 514.045 630.213 511.628 630.374Z" fill="black"/>
<path d="M482.538 646.404C480.927 654.057 475.046 657.763 468.36 657.763C458.774 657.763 451.524 649.868 451.524 639.316C451.524 629.166 459.338 620.063 468.763 620.063C477.544 620.063 482.78 626.83 482.86 634.966H456.277C456.197 635.61 456.197 636.335 456.197 637.06C456.197 646.163 462.883 652.285 470.374 652.285C475.369 652.285 479.477 650.674 482.538 646.404ZM467.635 623.688C462.802 623.688 458.452 626.83 456.841 632.227H476.577C476.335 626.991 472.791 623.688 467.635 623.688Z" fill="black"/>
<path d="M421.921 624.252L433.924 613.699V621.835H448.021L445.685 625.38H433.924V645.438C433.924 650.835 436.985 653.091 440.851 653.091C443.993 653.091 446.651 651.963 449.229 649.385C447.215 654.943 442.946 657.763 437.71 657.763C432.635 657.763 428.204 654.541 428.204 648.177L428.607 626.185L421.921 624.252Z" fill="black"/>
<path d="M409.971 609.51C407.474 609.51 405.541 607.577 405.541 605.16C405.541 602.744 407.474 600.73 409.971 600.73C412.468 600.73 414.402 602.744 414.402 605.16C414.402 607.577 412.468 609.51 409.971 609.51ZM407.796 654.057V628.199L400.707 624.332L413.757 619.257V654.057H419.718V656.957H401.916V654.057H407.796Z" fill="black"/>
<path d="M363.204 602.583L355.551 599.199L369.165 594.124V626.105H371.178C374.078 623.366 377.864 620.063 383.181 620.063C389.706 620.063 392.687 624.816 392.687 631.663V654.057H398.648V656.957H380.845V654.057H386.726V633.274C386.726 627.716 383.826 624.896 378.912 624.896C375.045 624.896 371.42 627.474 369.165 629.73V654.057H375.126V656.957H357.242V654.057H363.204V602.583Z" fill="black"/>
<path d="M348.804 630.374L343.97 622.641C336.882 622.721 329.873 629.005 329.873 638.188C329.873 647.049 335.834 652.527 343.165 652.527C347.837 652.527 351.865 650.352 354.362 646.646C353.154 653.332 347.595 657.763 340.668 657.763C331.726 657.763 324.396 650.513 324.396 640.363C324.396 628.682 333.982 620.063 344.293 620.063C350.173 620.063 353.395 622.56 353.395 625.943C353.395 628.36 351.22 630.213 348.804 630.374Z" fill="black"/>
<path d="M299.843 628.199L292.754 624.332L305.804 619.257V626.588H307.738C311.685 622.56 314.504 620.063 317.726 620.063C320.224 620.063 322.076 621.674 322.076 624.091C322.076 626.104 320.546 627.877 318.613 628.763L312.651 624.977L305.804 630.374V654.057H314.424V656.957H293.963V654.057H299.843V628.199Z" fill="black"/>
<path d="M255.969 601.374H262.655L284.083 653.815H290.93V656.957H267.086V653.815H277.155L269.825 635.61H250.169L242.839 653.815H252.747V656.957H232.286V653.815H239.053L258.305 607.174L255.969 601.374ZM251.458 632.468H268.536L259.997 611.363L251.458 632.468Z" fill="black"/>
<path d="M651.807 547.579L644.718 543.712L657.768 538.637V545.485H659.781C662.762 542.746 666.548 539.443 671.865 539.443C678.39 539.443 681.37 544.196 681.37 551.043V573.437H687.251V576.337H669.448V573.437H675.409V552.654C675.409 547.096 672.509 544.276 667.515 544.276C663.648 544.276 660.104 546.854 657.768 549.109V573.437H663.729V576.337H645.926V573.437H651.807V547.579Z" fill="black"/>
<path d="M630.599 550.318C630.599 545.646 627.619 541.457 619.08 544.598V551.607H610.863C613.844 545.082 621.577 539.443 628.505 539.443C632.774 539.443 636.238 542.343 636.238 547.982V567.395C636.238 570.779 637.688 572.309 640.105 572.309C641.716 572.309 643.327 571.584 644.374 570.134C644.213 574.243 640.91 576.981 637.124 576.981C633.66 576.981 631.485 574.806 630.76 571.987H628.988C626.894 574.001 623.51 576.901 619.08 576.901C615.133 576.901 611.347 574.162 611.347 569.49C611.347 564.254 616.26 561.273 621.335 559.34L630.599 555.796V550.318ZM630.599 558.212L625.363 560.226C620.127 562.24 617.308 564.093 617.308 568.04C617.308 571.02 619.644 572.631 622.624 572.631C625.927 572.631 628.424 571.02 630.599 568.926V558.212Z" fill="black"/>
<path d="M549.027 547.579L541.938 543.712L554.988 538.637V545.485H557.002C559.982 542.665 563.527 539.443 568.924 539.443C573.677 539.443 576.496 542.101 577.865 545.807H579.718C582.618 542.987 586.807 539.443 592.124 539.443C598.649 539.443 601.549 544.196 601.549 551.043V573.437H607.429V576.337H589.626V573.437H595.588V552.654C595.588 547.096 592.688 544.276 587.774 544.276C583.907 544.276 580.524 546.934 578.268 549.19V573.437H584.229V576.337H566.346V573.437H572.307V552.654C572.307 547.096 569.488 544.276 564.493 544.276C560.627 544.276 557.324 546.934 554.988 549.19V573.437H560.949V576.337H543.146V573.437H549.027V547.579Z" fill="black"/>
<path d="M518.523 547.579L511.434 543.712L524.484 538.637V545.968H526.417C530.364 541.94 533.184 539.443 536.406 539.443C538.903 539.443 540.756 541.054 540.756 543.471C540.756 545.484 539.226 547.257 537.292 548.143L531.331 544.357L524.484 549.754V573.437H533.103V576.337H512.642V573.437H518.523V547.579Z" fill="black"/>
<path d="M470.976 558.293C470.976 547.176 479.917 539.443 489.584 539.443C499.331 539.443 508.272 547.176 508.272 558.293C508.272 569.409 499.331 577.143 489.584 577.143C479.917 577.143 470.976 569.409 470.976 558.293ZM477.501 558.293C477.501 567.476 483.139 574.323 489.584 574.323C496.109 574.323 501.748 567.476 501.748 558.293C501.748 549.029 496.109 542.262 489.584 542.262C483.139 542.262 477.501 549.19 477.501 558.293Z" fill="black"/>
<path d="M429.838 576.337H409.297V573.195H417.755V529.615L410.102 520.754H418.319L456.663 565.623V523.896H448.285V520.754H468.827V523.896H460.369V578.754L421.461 533.885V573.195H429.838V576.337Z" fill="black"/>
<path d="M365.547 573.034V563.69C368.447 571.101 373.281 573.92 377.55 573.92C381.256 573.92 384.317 571.584 384.317 567.637C384.317 558.615 366.353 561.273 366.353 549.593C366.353 543.309 371.589 539.443 377.147 539.443C380.047 539.443 382.786 540.812 384.397 542.343L388.425 539.362V552.09C385.042 546.371 381.497 542.504 377.147 542.504C373.925 542.504 371.428 544.518 371.428 547.901C371.428 556.279 389.714 554.184 389.714 565.865C389.714 572.309 383.753 577.143 376.583 577.143C371.992 577.143 367.642 575.29 365.547 573.034Z" fill="black"/>
<path d="M360.543 565.784C358.932 573.437 353.051 577.143 346.365 577.143C336.779 577.143 329.529 569.248 329.529 558.695C329.529 548.546 337.343 539.443 346.768 539.443C355.549 539.443 360.785 546.209 360.865 554.346H334.282C334.201 554.99 334.201 555.715 334.201 556.44C334.201 565.543 340.888 571.665 348.379 571.665C353.374 571.665 357.482 570.054 360.543 565.784ZM345.64 543.068C340.807 543.068 336.457 546.209 334.846 551.607H354.582C354.34 546.371 350.796 543.068 345.64 543.068Z" fill="black"/>
<path d="M267.532 547.579L260.443 543.712L273.493 538.637V545.485H275.507C278.487 542.665 282.032 539.443 287.429 539.443C292.182 539.443 295.001 542.101 296.37 545.807H298.223C301.123 542.987 305.312 539.443 310.629 539.443C317.154 539.443 320.053 544.196 320.053 551.043V573.437H325.934V576.337H308.131V573.437H314.092V552.654C314.092 547.096 311.192 544.276 306.279 544.276C302.412 544.276 299.029 546.934 296.773 549.19V573.437H302.734V576.337H284.851V573.437H290.812V552.654C290.812 547.096 287.993 544.276 282.998 544.276C279.132 544.276 275.829 546.934 273.493 549.19V573.437H279.454V576.337H261.651V573.437H267.532V547.579Z" fill="black"/>
<path d="M246.324 550.318C246.324 545.646 243.344 541.457 234.805 544.598V551.607H226.588C229.569 545.082 237.302 539.443 244.23 539.443C248.499 539.443 251.963 542.343 251.963 547.982V567.395C251.963 570.779 253.413 572.309 255.83 572.309C257.441 572.309 259.052 571.584 260.099 570.134C259.938 574.243 256.635 576.981 252.849 576.981C249.385 576.981 247.21 574.806 246.485 571.987H244.713C242.619 574.001 239.236 576.901 234.805 576.901C230.858 576.901 227.072 574.162 227.072 569.49C227.072 564.254 231.986 561.273 237.061 559.34L246.324 555.796V550.318ZM246.324 558.212L241.088 560.226C235.852 562.24 233.033 564.093 233.033 568.04C233.033 571.02 235.369 572.631 238.349 572.631C241.652 572.631 244.149 571.02 246.324 568.926V558.212Z" fill="black"/>
<path d="M209.343 571.343V523.896H200.885V520.754H224.246V523.896H215.868V574.001C212.968 582.54 203.946 594.22 197.26 594.22C194.521 594.22 192.749 592.287 192.749 589.951C192.749 588.42 193.474 586.648 194.924 585.681L203.382 588.823C206.363 585.762 209.343 580.204 209.343 571.343Z" fill="black"/>
<path d="M147 701.5L0 1179" stroke="black" stroke-width="4"/>
<path d="M733 701.5L880 1179" stroke="black" stroke-width="4"/>
</g>
<defs>
<clipPath id="clip0_4_457">
<rect width="880" height="1179" fill="white"/>
</clipPath>
</defs>
</svg>
