<svg width="" height="" viewBox="0 0 351 102" fill="none" xmlns="http://www.w3.org/2000/svg">
<g clip-path="url(#clip0_60_1546)">
<rect x="0.494366" y="0.494366" width="350.011" height="100.356" stroke="black" stroke-width="0.988732"/>
<path d="M102.581 22.988L7.52553e-05 4.04867e-06" stroke="black" stroke-width="0.988732"/>
<path d="M248.419 22.988L351 0" stroke="black" stroke-width="0.988732"/>
<rect x="103.075" y="22.988" width="144.849" height="55.369" stroke="black" stroke-width="0.988732"/>
<path d="M228.323 64.7383C227.925 66.63 226.471 67.5459 224.818 67.5459C222.449 67.5459 220.657 65.5945 220.657 62.9861C220.657 60.4772 222.588 58.2272 224.918 58.2272C227.088 58.2272 228.383 59.8998 228.402 61.9109H221.832C221.812 62.0702 221.812 62.2494 221.812 62.4286C221.812 64.6786 223.464 66.1919 225.316 66.1919C226.551 66.1919 227.566 65.7937 228.323 64.7383ZM224.639 59.1232C223.444 59.1232 222.369 59.8998 221.971 61.2339H226.849C226.79 59.9396 225.913 59.1232 224.639 59.1232Z" fill="black"/>
<path d="M214.588 60.2383L212.836 59.2825L216.062 58.0281V59.8401H216.54C217.515 58.8445 218.212 58.2272 219.009 58.2272C219.626 58.2272 220.084 58.6254 220.084 59.2228C220.084 59.7206 219.706 60.1586 219.228 60.3777L217.754 59.4418L216.062 60.7759V66.63H218.192V67.3468H213.135V66.63H214.588V60.2383Z" fill="black"/>
<path d="M209.277 67.6654V66.4109H208.779C208.042 67.0282 207.146 67.5459 206.151 67.5459C204.498 67.5459 203.602 66.3711 203.602 64.6985V59.2626H201.949V58.6055L205.075 58.2869V64.2804C205.075 65.7738 205.932 66.5304 207.146 66.5304C208.102 66.5304 208.918 66.0525 209.277 65.5348V59.2626H207.604V58.6055L210.75 58.2869V65.8136L212.502 66.6101L209.277 67.6654Z" fill="black"/>
<path d="M195.012 59.2626L197.979 56.6541V58.6652H201.464L200.886 59.5413H197.979V64.4994C197.979 65.8335 198.736 66.391 199.691 66.391C200.468 66.391 201.125 66.1122 201.762 65.475C201.265 66.849 200.209 67.5459 198.915 67.5459C197.66 67.5459 196.565 66.7494 196.565 65.1764L196.665 59.7404L195.012 59.2626Z" fill="black"/>
<path d="M193.205 60.7759L192.01 58.8643C190.258 58.8843 188.526 60.4374 188.526 62.7073C188.526 64.8976 189.999 66.2516 191.811 66.2516C192.966 66.2516 193.962 65.714 194.579 64.7981C194.28 66.4507 192.906 67.5459 191.194 67.5459C188.984 67.5459 187.172 65.7538 187.172 63.2449C187.172 60.3577 189.541 58.2272 192.09 58.2272C193.544 58.2272 194.34 58.8444 194.34 59.6807C194.34 60.2781 193.803 60.7361 193.205 60.7759Z" fill="black"/>
<path d="M186.014 64.7383C185.616 66.63 184.162 67.5459 182.51 67.5459C180.14 67.5459 178.348 65.5945 178.348 62.9861C178.348 60.4772 180.28 58.2272 182.609 58.2272C184.78 58.2272 186.074 59.8998 186.094 61.9109H179.523C179.503 62.0702 179.503 62.2494 179.503 62.4286C179.503 64.6786 181.156 66.1919 183.008 66.1919C184.242 66.1919 185.258 65.7937 186.014 64.7383ZM182.331 59.1232C181.136 59.1232 180.061 59.8998 179.662 61.2339H184.541C184.481 59.9396 183.605 59.1232 182.331 59.1232Z" fill="black"/>
<path d="M171.031 59.2626L173.998 56.6541V58.6652H177.482L176.905 59.5413H173.998V64.4994C173.998 65.8335 174.754 66.391 175.71 66.391C176.487 66.391 177.144 66.1122 177.781 65.475C177.283 66.849 176.228 67.5459 174.933 67.5459C173.679 67.5459 172.584 66.7494 172.584 65.1764L172.683 59.7404L171.031 59.2626Z" fill="black"/>
<path d="M168.077 55.6187C167.46 55.6187 166.982 55.1409 166.982 54.5435C166.982 53.9462 167.46 53.4484 168.077 53.4484C168.694 53.4484 169.172 53.9462 169.172 54.5435C169.172 55.1409 168.694 55.6187 168.077 55.6187ZM167.539 66.63V60.2383L165.787 59.2825L169.013 58.0281V66.63H170.486V67.3468H166.086V66.63H167.539Z" fill="black"/>
<path d="M156.517 53.9063L154.625 53.07L157.99 51.8156V59.7205H158.488C159.205 59.0435 160.141 58.2272 161.455 58.2272C163.068 58.2272 163.804 59.402 163.804 61.0945V66.6299H165.278V67.3468H160.877V66.6299H162.331V61.4927C162.331 60.1188 161.614 59.4219 160.399 59.4219C159.444 59.4219 158.548 60.059 157.99 60.6166V66.6299H159.464V67.3468H155.043V66.6299H156.517V53.9063Z" fill="black"/>
<path d="M152.958 60.7759L151.763 58.8643C150.011 58.8843 148.278 60.4374 148.278 62.7073C148.278 64.8976 149.752 66.2516 151.564 66.2516C152.719 66.2516 153.714 65.714 154.332 64.7981C154.033 66.4507 152.659 67.5459 150.947 67.5459C148.736 67.5459 146.924 65.7538 146.924 63.2449C146.924 60.3577 149.294 58.2272 151.843 58.2272C153.296 58.2272 154.093 58.8444 154.093 59.6807C154.093 60.2781 153.555 60.7361 152.958 60.7759Z" fill="black"/>
<path d="M140.855 60.2383L139.103 59.2825L142.329 58.0281V59.8401H142.807C143.782 58.8445 144.479 58.2272 145.276 58.2272C145.893 58.2272 146.351 58.6254 146.351 59.2228C146.351 59.7206 145.973 60.1586 145.495 60.3777L144.021 59.4418L142.329 60.7759V66.63H144.459V67.3468H139.402V66.63H140.855V60.2383Z" fill="black"/>
<path d="M130.01 53.6076H131.663L136.96 66.5702H138.652V67.3467H132.758V66.5702H135.247L133.435 62.0701H128.577L126.765 66.5702H129.214V67.3467H124.156V66.5702H125.829L130.588 55.0413L130.01 53.6076ZM128.895 61.2936H133.117L131.006 56.0767L128.895 61.2936Z" fill="black"/>
<path d="M227.855 40.3103L226.103 39.3545L229.328 38.1001V39.7926H229.826C230.563 39.1156 231.499 38.2992 232.813 38.2992C234.426 38.2992 235.162 39.474 235.162 41.1665V46.702H236.616V47.4188H232.215V46.702H233.689V41.5648C233.689 40.1908 232.972 39.4939 231.738 39.4939C230.782 39.4939 229.906 40.1311 229.328 40.6886V46.702H230.802V47.4188H226.401V46.702H227.855V40.3103Z" fill="black"/>
<path d="M222.613 40.9873C222.613 39.8325 221.876 38.797 219.765 39.5736V41.3059H217.734C218.471 39.6931 220.383 38.2993 222.095 38.2993C223.15 38.2993 224.007 39.0161 224.007 40.4099V45.2087C224.007 46.0449 224.365 46.4233 224.962 46.4233C225.361 46.4233 225.759 46.2441 226.018 45.8857C225.978 46.9012 225.161 47.5782 224.226 47.5782C223.369 47.5782 222.832 47.0405 222.653 46.3436H222.215C221.697 46.8414 220.861 47.5582 219.765 47.5582C218.79 47.5582 217.854 46.8812 217.854 45.7264C217.854 44.4321 219.068 43.6954 220.323 43.2175L222.613 42.3414V40.9873ZM222.613 42.9387L221.319 43.4365C220.024 43.9343 219.327 44.3923 219.327 45.3679C219.327 46.1047 219.905 46.5029 220.641 46.5029C221.458 46.5029 222.075 46.1047 222.613 45.587V42.9387Z" fill="black"/>
<path d="M202.449 40.3103L200.697 39.3545L203.923 38.1001V39.7926H204.42C205.157 39.0957 206.033 38.2992 207.367 38.2992C208.542 38.2992 209.239 38.9563 209.577 39.8722H210.035C210.752 39.1753 211.788 38.2992 213.102 38.2992C214.715 38.2992 215.432 39.474 215.432 41.1665V46.702H216.885V47.4188H212.485V46.702H213.958V41.5648C213.958 40.1908 213.241 39.4939 212.027 39.4939C211.071 39.4939 210.235 40.151 209.677 40.7085V46.702H211.15V47.4188H206.73V46.702H208.204V41.5648C208.204 40.1908 207.507 39.4939 206.272 39.4939C205.316 39.4939 204.5 40.151 203.923 40.7085V46.702H205.396V47.4188H200.995V46.702H202.449V40.3103Z" fill="black"/>
<path d="M194.909 40.3103L193.157 39.3545L196.382 38.1001V39.9121H196.86C197.836 38.9165 198.533 38.2992 199.329 38.2992C199.947 38.2992 200.405 38.6975 200.405 39.2948C200.405 39.7926 200.026 40.2307 199.548 40.4497L198.075 39.5138L196.382 40.8479V46.702H198.513V47.4188H193.455V46.702H194.909V40.3103Z" fill="black"/>
<path d="M183.156 42.9586C183.156 40.2108 185.366 38.2993 187.756 38.2993C190.165 38.2993 192.375 40.2108 192.375 42.9586C192.375 45.7064 190.165 47.618 187.756 47.618C185.366 47.618 183.156 45.7064 183.156 42.9586ZM184.769 42.9586C184.769 45.2286 186.163 46.9211 187.756 46.9211C189.369 46.9211 190.763 45.2286 190.763 42.9586C190.763 40.6688 189.369 38.9962 187.756 38.9962C186.163 38.9962 184.769 40.7086 184.769 42.9586Z" fill="black"/>
<path d="M172.988 47.4188H167.91V46.6423H170.001V35.87L168.109 33.6797H170.14L179.618 44.7706V34.4562H177.547V33.6797H182.625V34.4562H180.534V48.0162L170.917 36.9253V46.6423H172.988V47.4188Z" fill="black"/>
<path d="M157.096 46.6025V44.2927C157.813 46.1246 159.008 46.8215 160.063 46.8215C160.979 46.8215 161.736 46.2441 161.736 45.2684C161.736 43.0383 157.295 43.6954 157.295 40.8082C157.295 39.255 158.59 38.2993 159.963 38.2993C160.68 38.2993 161.357 38.6378 161.756 39.0161L162.751 38.2794V41.4254C161.915 40.0117 161.039 39.0559 159.963 39.0559C159.167 39.0559 158.55 39.5537 158.55 40.39C158.55 42.4608 163.07 41.9431 163.07 44.8303C163.07 46.4233 161.596 47.618 159.824 47.618C158.689 47.618 157.614 47.16 157.096 46.6025Z" fill="black"/>
<path d="M155.859 44.8104C155.461 46.702 154.008 47.618 152.355 47.618C149.985 47.618 148.193 45.6666 148.193 43.0582C148.193 40.5493 150.125 38.2993 152.454 38.2993C154.625 38.2993 155.919 39.9718 155.939 41.9829H149.368C149.348 42.1422 149.348 42.3214 149.348 42.5006C149.348 44.7507 151.001 46.264 152.853 46.264C154.087 46.264 155.103 45.8657 155.859 44.8104ZM152.176 39.1953C150.981 39.1953 149.906 39.9718 149.508 41.3059H154.386C154.326 40.0117 153.45 39.1953 152.176 39.1953Z" fill="black"/>
<path d="M132.868 40.3103L131.116 39.3545L134.342 38.1001V39.7926H134.84C135.576 39.0957 136.453 38.2992 137.787 38.2992C138.961 38.2992 139.658 38.9563 139.997 39.8722H140.455C141.172 39.1753 142.207 38.2992 143.521 38.2992C145.134 38.2992 145.851 39.474 145.851 41.1665V46.702H147.305V47.4188H142.904V46.702H144.377V41.5648C144.377 40.1908 143.661 39.4939 142.446 39.4939C141.49 39.4939 140.654 40.151 140.096 40.7085V46.702H141.57V47.4188H137.149V46.702H138.623V41.5648C138.623 40.1908 137.926 39.4939 136.692 39.4939C135.736 39.4939 134.919 40.151 134.342 40.7085V46.702H135.815V47.4188H131.415V46.702H132.868V40.3103Z" fill="black"/>
<path d="M127.626 40.9873C127.626 39.8325 126.89 38.797 124.779 39.5736V41.3059H122.748C123.485 39.6931 125.396 38.2993 127.109 38.2993C128.164 38.2993 129.02 39.0161 129.02 40.4099V45.2087C129.02 46.0449 129.379 46.4233 129.976 46.4233C130.374 46.4233 130.773 46.2441 131.031 45.8857C130.992 46.9012 130.175 47.5782 129.239 47.5782C128.383 47.5782 127.845 47.0405 127.666 46.3436H127.228C126.71 46.8414 125.874 47.5582 124.779 47.5582C123.803 47.5582 122.868 46.8812 122.868 45.7264C122.868 44.4321 124.082 43.6954 125.337 43.2175L127.626 42.3414V40.9873ZM127.626 42.9387L126.332 43.4365C125.038 43.9343 124.341 44.3923 124.341 45.3679C124.341 46.1047 124.918 46.5029 125.655 46.5029C126.472 46.5029 127.089 46.1047 127.626 45.587V42.9387Z" fill="black"/>
<path d="M118.485 46.1843V34.4562H116.394V33.6797H122.169V34.4562H120.098V46.8414C119.381 48.952 117.151 51.8392 115.498 51.8392C114.821 51.8392 114.383 51.3614 114.383 50.7839C114.383 50.4056 114.563 49.9675 114.921 49.7286L117.012 50.5052C117.748 49.7485 118.485 48.3746 118.485 46.1843Z" fill="black"/>
<path d="M103.075 78.3571L-0.000160217 101.345" stroke="black" stroke-width="0.988732"/>
<path d="M247.925 78.3571L351 101.345" stroke="black" stroke-width="0.988732"/>
</g>
<defs>
<clipPath id="clip0_60_1546">
<rect width="351" height="101.345" fill="white"/>
</clipPath>
</defs>
</svg>
